<svg xmlns="http://www.w3.org/2000/svg" version="1.1" xmlns:xlink="http://www.w3.org/1999/xlink" xmlns:svgjs="http://svgjs.dev/svgjs" width="1000" height="999" viewBox="0 0 1000 999"><g transform="matrix(1,0,0,1,-0.215743440233382,-0.21552769679306039)"><svg viewBox="0 0 343 343" data-background-color="#ffffff" preserveAspectRatio="xMidYMid meet" height="999" width="1000" xmlns="http://www.w3.org/2000/svg" xmlns:xlink="http://www.w3.org/1999/xlink"><g id="tight-bounds" transform="matrix(1,0,0,1,0.0740000000000407,0.07400000000001228)"><svg viewBox="0 0 342.85155851775386 342.85155851775386" height="342.85155851775386" width="342.85155851775386"><g><svg></svg></g><g><svg viewBox="0 0 342.85155851775386 342.85155851775386" height="342.85155851775386" width="342.85155851775386"><g><path d="M0 171.426c0-94.676 76.75-171.426 171.426-171.426 94.676 0 171.426 76.75 171.426 171.426 0 94.676-76.75 171.426-171.426 171.426-94.676 0-171.426-76.75-171.426-171.426zM171.426 338.496c92.27 0 167.07-74.8 167.07-167.07 0-92.27-74.8-167.07-167.07-167.07-92.27 0-167.07 74.8-167.07 167.07 0 92.27 74.8 167.07 167.07 167.07z" data-fill-palette-color="tertiary" fill="#202046" stroke="transparent"></path><ellipse rx="164.56874808852186" ry="164.56874808852186" cx="171.42577925887693" cy="171.42577925887693" fill="#202046" stroke="transparent" stroke-width="0" fill-opacity="1" data-fill-palette-color="tertiary"></ellipse></g><g transform="matrix(1,0,0,1,64.84655864529837,147.27596376227982)"><svg viewBox="0 0 213.1584412271571 48.299630993194235" height="48.299630993194235" width="213.1584412271571"><g><svg viewBox="0 0 213.1584412271571 48.299630993194235" height="48.299630993194235" width="213.1584412271571"><g><svg viewBox="0 0 213.1584412271571 48.299630993194235" height="48.299630993194235" width="213.1584412271571"><g><svg viewBox="0 0 213.1584412271571 48.299630993194235" height="48.299630993194235" width="213.1584412271571"><g id="textblocktransform"><svg viewBox="0 0 213.1584412271571 48.299630993194235" height="48.299630993194235" width="213.1584412271571" id="textblock"><g><svg viewBox="0 0 213.1584412271571 48.299630993194235" height="48.299630993194235" width="213.1584412271571"><g transform="matrix(1,0,0,1,0,0)"><svg width="213.1584412271571" viewBox="2.49 -46.24 247.14999999999998 56.010000000000005" height="48.299630993194235" data-palette-color="#ffffff"><path d="M48.68-11.18L48.68-11.18Q48.68-10.21 48.36-9.59 48.05-8.98 47.66-8.2L47.66-8.2Q47.56-8.25 47.41-8.25L47.41-8.25Q47.12-8.25 46.88-8.11 46.63-7.96 46.39-7.86L46.39-7.86Q44.97-6.3 43.48-4.83 41.99-3.37 40.19-2.25L40.19-2.25Q39.7-1.95 39.21-1.68 38.72-1.42 38.18-1.17L38.18-1.17Q37.99-1.07 37.82-1 37.65-0.93 37.5-0.83L37.5-0.83Q37.16-0.63 36.79-0.2 36.43 0.24 35.96 0.71 35.5 1.17 34.96 1.49 34.42 1.81 33.79 1.76L33.79 1.76Q33.4 2 33.11 2.39 32.81 2.78 32.42 3.17L32.42 3.17Q30.32 3.91 28.59 5.1 26.86 6.3 25 7.42L25 7.42Q23.88 8.15 22.75 8.59L22.75 8.59Q22.51 8.69 22.19 8.74 21.88 8.79 21.53 8.89L21.53 8.89Q19.92 9.28 18.29 9.52 16.65 9.77 14.99 9.77L14.99 9.77Q12.94 9.77 11.04 9.28L11.04 9.28Q11.04 9.13 10.94 9.08 10.84 9.03 10.72 8.98 10.6 8.94 10.5 8.86 10.4 8.79 10.5 8.59L10.5 8.59Q9.42 8.5 8.62 8.06 7.81 7.62 7.57 6.49L7.57 6.49Q7.42 6.59 7.32 6.74 7.23 6.88 6.98 6.84L6.98 6.84Q6.3 5.86 5.47 5.03 4.64 4.2 4.25 3.03L4.25 3.03Q4.15 2.78 4.13 2.56 4.1 2.34 4.05 2.1L4.05 2.1Q3.81 1.42 3.17 1.42L3.17 1.42Q3.27 1.22 3.27 0.93L3.27 0.93Q3.27 0.78 3.25 0.63 3.22 0.49 3.22 0.34L3.22 0.34Q3.22 0.1 3.37-0.15L3.37-0.15Q2.88-1.27 2.69-2.37 2.49-3.47 2.49-4.64L2.49-4.64Q2.49-6.15 2.64-7.64 2.78-9.13 2.78-10.64L2.78-10.64Q3.08-11.23 3.25-12.01 3.42-12.79 3.86-13.28L3.86-13.28Q3.81-13.57 3.66-13.6 3.52-13.62 3.52-13.87L3.52-13.87Q3.52-14.75 3.86-15.77 4.2-16.8 4.2-17.87L4.2-17.87Q4.64-18.12 4.76-18.6 4.88-19.09 5.27-19.38L5.27-19.38 5.27-19.63Q5.27-20.36 5.44-21.09 5.62-21.83 5.79-22.53 5.96-23.24 6.08-23.95 6.2-24.66 6.15-25.34L6.15-25.34Q6.25-25.49 6.42-25.9 6.59-26.32 6.76-26.78 6.93-27.25 7.06-27.69 7.18-28.13 7.18-28.32L7.18-28.32Q7.18-28.61 7.08-28.86 6.98-29.1 6.98-29.39L6.98-29.39Q6.98-29.64 7.13-30.1 7.28-30.57 7.37-30.86L7.37-30.86Q7.57-31.69 7.74-32.59 7.91-33.5 8.06-34.33L8.06-34.33Q8.5-37.01 8.69-39.72 8.89-42.43 8.94-45.17L8.94-45.17Q9.62-45.56 10.38-45.9 11.13-46.24 11.96-46.24L11.96-46.24Q12.21-46.24 12.45-46.19 12.7-46.14 12.94-46.04L12.94-46.04Q13.18-45.07 13.72-44.48 14.26-43.9 14.7-43.07L14.7-43.07Q14.4-42.29 14.31-41.46L14.31-41.46 14.16-39.79Q14.11-38.96 13.96-38.16 13.82-37.35 13.48-36.62L13.48-36.62Q13.57-36.38 13.57-36.13L13.57-36.13 13.57-35.64Q13.57-34.96 13.45-34.33 13.33-33.69 13.18-33.03 13.04-32.37 12.94-31.74 12.84-31.1 12.94-30.47L12.94-30.47Q12.79-30.22 12.65-30.1 12.5-29.98 12.45-29.74L12.45-29.74 12.35-28.81Q12.26-28.27 12.18-27.76 12.11-27.25 12.01-26.71L12.01-26.71Q11.67-25.24 11.25-23.78 10.84-22.31 10.84-20.75L10.84-20.75 10.84-20.46Q10.4-19.78 10.16-18.77 9.91-17.77 10.01-16.94L10.01-16.94Q9.47-15.53 8.98-14.16 8.5-12.79 8.5-11.33L8.5-11.33Q8.5-11.08 8.52-10.82 8.54-10.55 8.59-10.3L8.59-10.3Q8.2-9.33 8.11-8.33 8.01-7.32 8.01-6.35L8.01-6.35Q8.01-5.66 8.08-4.76 8.15-3.86 8.33-2.91 8.5-1.95 8.74-1.07 8.98-0.2 9.28 0.34L9.28 0.34Q10.4 2.15 12.23 3.2 14.06 4.25 16.11 4.54L16.11 4.54Q16.94 4.25 17.46 4.2 17.97 4.15 18.9 4.2L18.9 4.2Q19.68 3.81 20.48 3.61 21.29 3.42 22.12 3.17L22.12 3.17Q22.36 3.08 22.63 2.98 22.9 2.88 23.1 2.78L23.1 2.78Q23.34 2.69 23.63 2.34 23.93 2 24.17 1.76L24.17 1.76Q25.2 1.46 26.12 0.95 27.05 0.44 27.93-0.1L27.93-0.1 29.74-1.17Q30.66-1.71 31.69-2.1L31.69-2.1Q32.08-2.25 32.15-2.51 32.23-2.78 32.42-3.17L32.42-3.17Q32.52-3.08 32.71-3.08L32.71-3.08Q33.3-3.08 33.54-3.44 33.79-3.81 34.13-4.2L34.13-4.2Q34.77-4.3 35.35-4.57 35.94-4.83 36.23-5.42L36.23-5.42Q37.45-5.66 38.38-6.3 39.31-6.93 40.19-7.69 41.06-8.45 41.94-9.16 42.82-9.86 43.95-10.3L43.95-10.3Q44.09-10.55 44.14-10.74 44.19-10.94 44.29-11.18L44.29-11.18Q45.12-11.28 45.61-11.65 46.09-12.01 46.73-12.4L46.73-12.4Q48.1-12.26 48.68-11.18ZM80.17-3.56L80.17-3.56Q80.03-2.88 79.56-2.47 79.1-2.05 78.46-1.81 77.83-1.56 77.17-1.49 76.51-1.42 75.97-1.42L75.97-1.42Q75.73-1.42 75.51-1.44 75.29-1.46 75.05-1.46L75.05-1.46Q74.8-1.46 74.8-1.22 74.8-0.98 74.56-0.88L74.56-0.88Q74.31-0.98 74.07-1.03 73.83-1.07 73.58-1.07L73.58-1.07Q73.24-1.07 72.92-1.03 72.6-0.98 72.31-0.98L72.31-0.98Q71.92-0.98 71.75-1.07 71.58-1.17 71.46-1.29 71.34-1.42 71.21-1.56 71.09-1.71 70.85-1.81L70.85-1.81Q70.51-1.95 70.29-1.86 70.07-1.76 69.63-2.15L69.63-2.15Q69.04-2.64 68.63-3.34 68.21-4.05 67.82-4.83 67.43-5.62 66.99-6.4 66.55-7.18 65.96-7.76L65.96-7.76 65.57-7.76Q64.69-7.76 64.35-7.03L64.35-7.03Q64.11-7.18 63.86-7.4 63.62-7.62 63.33-7.76L63.33-7.76Q62.2-7.42 60.98-7.18 59.76-6.93 58.54-6.93L58.54-6.93 57.86-6.93Q57.57-6.93 57.22-7.03L57.22-7.03Q56.74-6.84 56.35-6.57 55.95-6.3 55.47-6.3L55.47-6.3Q55.17-6.3 54.78-6.49L54.78-6.49Q54.49-6.49 54.51-6.25 54.54-6.01 54.2-6.01L54.2-6.01 53.76-6.01Q53.07-6.01 52.41-5.96 51.76-5.91 51.07-5.91L51.07-5.91Q50.14-5.91 49.17-6.15L49.17-6.15Q48.92-6.01 48.63-6.01L48.63-6.01Q48.44-5.91 48.34-5.69 48.24-5.47 48.14-5.3 48.04-5.13 47.87-5 47.7-4.88 47.41-4.93L47.41-4.93Q47.31-4.35 46.92-4 46.53-3.66 46.53-2.98L46.53-2.98Q45.99-2.69 45.65-2.25 45.31-1.81 44.97-1.32 44.63-0.83 44.26-0.39 43.89 0.05 43.36 0.29L43.36 0.29Q43.11 0.59 43.21 1.22L43.21 1.22Q42.67 1.66 41.89 2 41.11 2.34 40.43 2.34L40.43 2.34Q39.01 2.34 38.47 0.83L38.47 0.83Q38.47 0.34 38.55-0.22 38.62-0.78 38.77-1.29 38.91-1.81 39.21-2.22 39.5-2.64 40.04-2.83L40.04-2.83Q40.04-3.27 39.74-3.44 39.45-3.61 39.5-4.05L39.5-4.05Q40.82-4.69 41.79-5.71 42.77-6.74 43.58-7.89 44.38-9.03 45.21-10.21 46.04-11.38 47.07-12.3L47.07-12.3 47.07-13.33Q48.53-14.89 48.97-16.85L48.97-16.85Q49.51-16.94 49.68-17.33 49.85-17.72 49.85-18.26L49.85-18.26Q50.1-18.26 50.17-18.48 50.24-18.7 50.58-18.6L50.58-18.6Q51.02-19.78 51.56-20.75 52.1-21.73 52.63-22.73 53.17-23.73 53.59-24.8 54-25.88 54.2-27.2L54.2-27.2Q54.88-27.25 54.95-27.86 55.03-28.47 55.12-28.96L55.12-28.96Q55.86-29.64 56.22-30.57 56.59-31.49 56.88-32.5 57.18-33.5 57.54-34.5 57.91-35.5 58.59-36.28L58.59-36.28 58.59-36.43Q58.59-36.67 58.4-36.74 58.2-36.82 58.2-37.06L58.2-37.06Q58.25-37.11 58.25-37.16L58.25-37.16Q58.84-37.4 59.13-37.96 59.42-38.53 60.01-38.77L60.01-38.77Q61.03-37.94 61.81-37.77 62.6-37.6 63.86-37.5L63.86-37.5Q64.5-36.82 64.57-35.86 64.65-34.91 64.89-33.98L64.89-33.98Q65.28-32.42 65.74-30.93 66.21-29.44 66.45-27.88L66.45-27.88Q66.6-26.95 66.99-26.12 67.38-25.29 67.53-24.41L67.53-24.41Q67.62-23.73 67.53-22.88 67.43-22.02 67.72-21.39L67.72-21.39 68.06-20.61Q68.31-20.07 68.48-19.48 68.65-18.9 68.8-18.31L68.8-18.31Q69.19-16.85 69.5-15.16 69.82-13.48 70.51-12.11L70.51-12.11Q70.75-11.62 71.26-11.43 71.77-11.23 72.41-11.16 73.04-11.08 73.65-11.11 74.27-11.13 74.7-11.13L74.7-11.13 75.19-11.13Q75.49-11.13 75.78-11.04L75.78-11.04Q75.97-10.64 75.97-10.35L75.97-10.35Q75.97-9.77 75.58-9.42 75.19-9.08 75.19-8.64L75.19-8.64Q75.19-8.4 75.39-8.11L75.39-8.11Q75.19-8.15 74.8-8.15L74.8-8.15Q73.68-8.15 72.6-7.76L72.6-7.76Q73-6.93 73.65-6.37 74.31-5.81 75.05-5.32L75.05-5.32Q75.53-5.71 76.07-5.71L76.07-5.71Q76.66-5.71 77.17-5.44 77.68-5.18 78.27-5.18L78.27-5.18Q78.71-5.18 78.9-5.32L78.9-5.32Q79.29-4.88 79.54-4.42 79.78-3.96 80.17-3.56ZM64.89-11.38L64.89-11.38Q64.79-12.21 64.57-12.57 64.35-12.94 64.21-13.48L64.21-13.48Q64.01-14.16 63.94-14.94 63.86-15.72 63.72-16.46L63.72-16.46Q63.38-18.12 62.96-19.78 62.55-21.44 61.91-23L61.91-23Q62.11-23.29 62.11-23.54L62.11-23.54 62.11-23.68Q61.67-24.17 61.47-24.88 61.28-25.59 61.11-26.29 60.94-27 60.67-27.61 60.4-28.22 59.81-28.61L59.81-28.61Q59.67-28.32 59.67-27.93L59.67-27.93Q59.67-27.59 59.74-27.29 59.81-27 59.81-26.66L59.81-26.66Q59.32-26.42 59.1-25.9 58.88-25.39 58.4-25.1L58.4-25.1Q58.01-23.54 57.27-22.14 56.54-20.75 55.73-19.38 54.93-18.02 54.2-16.63 53.46-15.23 53.02-13.72L53.02-13.72Q52.39-13.28 52.17-12.6 51.95-11.91 51.95-11.23L51.95-11.23Q52.39-10.99 52.95-10.96 53.51-10.94 54.05-10.94 54.59-10.94 55.08-10.84 55.56-10.74 55.95-10.35L55.95-10.35Q56.59-10.55 57.35-10.62 58.1-10.69 58.59-11.04L58.59-11.04Q59.57-10.69 60.69-10.69L60.69-10.69Q61.28-10.69 61.84-10.79 62.4-10.89 62.94-11.04L62.94-11.04Q63.38-10.94 63.62-10.72 63.86-10.5 64.35-10.55L64.35-10.55Q64.6-10.74 64.65-10.96 64.69-11.18 64.89-11.38ZM110.2-7.91L110.2-7.91Q110-7.18 109.57-6.69 109.13-6.2 108.56-5.81 108-5.42 107.37-5.1 106.73-4.79 106.15-4.39L106.15-4.39 105.51-4.39Q103.46-4.39 102.36-5.4 101.26-6.4 100.68-7.89 100.09-9.38 99.82-11.08 99.56-12.79 99.16-14.21L99.16-14.21Q98.58-13.72 98.19-13.06 97.8-12.4 97.38-11.77 96.97-11.13 96.45-10.6 95.94-10.06 95.11-9.86L95.11-9.86Q94.97-9.52 94.79-9.18 94.62-8.84 94.58-8.45L94.58-8.45Q93.5-7.86 92.62-7.08 91.74-6.3 90.86-5.47 89.99-4.64 89.08-3.88 88.18-3.13 87.06-2.64L87.06-2.64Q87.01-2.69 86.86-2.69L86.86-2.69Q86.27-2.69 85.79-2.42 85.3-2.15 84.71-2.15L84.71-2.15Q84.32-2.15 84-2.29 83.69-2.44 83.37-2.64 83.05-2.83 82.71-2.93 82.37-3.03 81.98-2.98L81.98-2.98Q81.49-3.86 80.68-4.61 79.88-5.37 79.68-6.35L79.68-6.35Q79.58-6.79 79.56-7.25 79.54-7.71 79.44-8.2L79.44-8.2Q79.29-8.94 79.05-9.69 78.8-10.45 78.66-11.23L78.66-11.23Q78.9-12.55 79.12-14.14 79.34-15.72 79.66-17.31 79.98-18.9 80.54-20.34 81.1-21.78 81.98-22.8L81.98-22.8 81.93-23.14Q81.93-23.93 82.22-24.61 82.51-25.29 82.86-25.93 83.2-26.56 83.44-27.2 83.69-27.83 83.54-28.61L83.54-28.61Q84.13-28.91 84.76-29.1 85.4-29.3 86.08-29.3L86.08-29.3Q86.71-29.3 87.25-29.1L87.25-29.1Q87.15-28.71 87.59-28.61L87.59-28.61 87.59-28.47Q87.59-27.44 87.35-26.46 87.1-25.49 86.76-24.54 86.42-23.58 86.1-22.63 85.79-21.68 85.64-20.7L85.64-20.7Q85.44-20.65 85.37-20.51 85.3-20.36 85.25-20.21 85.2-20.07 85.1-19.97 85-19.87 84.81-19.87L84.81-19.87Q84.52-18.16 84.2-16.48 83.88-14.79 83.88-13.09L83.88-13.09Q83.88-12.06 84.08-10.99 84.27-9.91 84.81-8.94L84.81-8.94 85-8.98Q85.54-8.98 85.86-8.74 86.18-8.5 86.71-8.25L86.71-8.25Q87.1-8.35 87.45-8.52 87.79-8.69 87.74-9.13L87.74-9.13Q88.37-9.18 88.81-9.45 89.25-9.72 89.59-10.06L89.59-10.06 90.33-10.74Q90.72-11.08 91.25-11.23L91.25-11.23Q91.25-11.52 91.4-11.67L91.4-11.67 91.69-11.96Q91.84-12.11 91.91-12.28 91.99-12.45 91.94-12.79L91.94-12.79Q92.52-12.84 92.84-13.09 93.16-13.33 93.43-13.65 93.7-13.96 93.94-14.31 94.18-14.65 94.58-14.89L94.58-14.89Q94.92-15.63 95.53-16.85 96.14-18.07 96.75-19.38 97.36-20.7 97.82-21.9 98.29-23.1 98.29-23.73L98.29-23.73Q98.29-23.97 98.16-24.17 98.04-24.37 98.09-24.61L98.09-24.61 98.09-24.76Q98.48-25.24 98.8-25.83 99.12-26.42 99.48-26.95 99.85-27.49 100.29-27.93 100.73-28.37 101.41-28.61L101.41-28.61Q102.19-28.37 103-28.27 103.8-28.17 104.54-27.88L104.54-27.88Q104.58-26.66 104.78-25.05 104.98-23.44 105.46-22.31L105.46-22.31Q105.46-21.68 105.44-21.09 105.41-20.51 105.41-19.92L105.41-19.92Q105.41-18.95 105.49-17.92 105.56-16.89 105.81-16.02L105.81-16.02Q105.46-15.28 105.46-14.45L105.46-14.45Q105.46-13.33 105.81-12.33 106.15-11.33 106.29-10.21L106.29-10.21Q106.93-9.33 107.95-9.33L107.95-9.33Q108.2-9.33 108.37-9.38 108.54-9.42 108.74-9.52L108.74-9.52Q109.13-9.08 109.44-8.67 109.76-8.25 110.2-7.91ZM174.26-8.5L174.26-8.5Q174.16-7.76 173.75-7.37 173.33-6.98 172.8-6.64L172.8-6.64Q172.55-6.69 172.33-6.71 172.11-6.74 171.87-6.74L171.87-6.74Q170.35-6.79 169.01-6.35 167.67-5.91 166.25-5.71L166.25-5.71Q165.76-5.62 165.35-5.64 164.93-5.66 164.49-5.57L164.49-5.57Q162.93-5.32 161.17-5.18 159.42-5.03 157.66-4.81 155.9-4.59 154.22-4.27 152.53-3.96 151.07-3.37L151.07-3.37Q150.92-3.47 150.77-3.59 150.63-3.71 150.43-3.71L150.43-3.71Q149.94-3.71 149.5-3.56 149.06-3.42 148.63-3.47L148.63-3.47Q148.14-3.17 147.58-3.05 147.01-2.93 146.45-2.86 145.89-2.78 145.35-2.64 144.82-2.49 144.33-2.1L144.33-2.1Q143.94-2.29 143.38-2.32 142.81-2.34 142.62-2.69L142.62-2.69Q141.5-2.15 140.25-2 139.01-1.86 137.74-1.9L137.74-1.9Q136.91-1.95 135.83-2.15 134.76-2.34 133.68-2.71 132.61-3.08 131.68-3.59 130.75-4.1 130.27-4.83L130.27-4.83Q129.92-5.32 129.78-5.91 129.63-6.49 129.09-6.79L129.09-6.79Q129.24-7.91 129.44-8.98 129.63-10.06 129.83-11.18L129.83-11.18Q130.8-12.01 131.68-12.94 132.56-13.87 133.34-14.89L133.34-14.89Q134.27-15.33 135.08-15.97 135.88-16.6 136.69-17.26 137.49-17.92 138.3-18.55 139.1-19.19 140.03-19.68L140.03-19.68Q140.18-20.02 140.45-20.24 140.72-20.46 141.01-20.68 141.3-20.9 141.55-21.17 141.79-21.44 141.89-21.83L141.89-21.83Q143.6-22.85 144.87-24.41 146.14-25.98 146.53-27.93L146.53-27.93Q145.7-28.61 144.65-28.83 143.6-29.05 142.47-29.15L142.47-29.15Q141.5-29.2 140.45-29.15 139.4-29.1 138.32-29.2L138.32-29.2Q137.25-28.86 136.1-28.76 134.95-28.66 133.83-28.59 132.71-28.52 131.61-28.3 130.51-28.08 129.48-27.49L129.48-27.49Q129.29-27.49 129.12-27.54 128.95-27.59 128.75-27.59L128.75-27.59Q127.19-27.64 125.82-26.98 124.46-26.32 123.14-25.68L123.14-25.68Q123.04-25.49 123.04-25.39L123.04-25.39Q123.04-25.1 123.16-24.83 123.28-24.56 123.28-24.27L123.28-24.27Q123.23-24.22 123.23-24.17 123.23-24.12 123.19-24.07L123.19-24.07Q123.14-23.83 123.06-23.63 122.99-23.44 122.89-23.19L122.89-23.19Q122.36-21.63 122.31-20.12L122.31-20.12Q122.26-18.85 122.31-17.63 122.36-16.41 122.31-15.14L122.31-15.14Q122.21-13.57 121.82-12.21L121.82-12.21Q122.06-11.04 122.26-9.74 122.45-8.45 122.75-7.18 123.04-5.91 123.45-4.71 123.87-3.52 124.55-2.44L124.55-2.44Q124.5-2.34 124.6-2.29 124.7-2.25 124.8-2.25L124.8-2.25 125.19-2.25Q125.43-2.25 125.38-2.05L125.38-2.05Q125.48-1.9 125.53-1.78 125.58-1.66 125.72-1.56L125.72-1.56Q125.82-1.42 125.72-1.17L125.72-1.17Q125.68-0.2 125.24 0.63 124.8 1.46 124.7 2.44L124.7 2.44Q124.11 2.59 123.63 2.59L123.63 2.59Q122.8 2.54 122.16 2.12 121.53 1.71 120.99 1.12 120.45 0.54 119.96-0.07 119.47-0.68 118.89-1.12L118.89-1.12Q118.55-2.49 118.23-4.15 117.91-5.81 117.18-6.98L117.18-6.98Q117.38-7.42 117.38-8.06L117.38-8.06Q117.42-9.03 117.2-9.99 116.98-10.94 117.08-11.91L117.08-11.91Q117.08-12.45 117.2-12.99 117.33-13.53 117.38-14.06L117.38-14.06Q117.42-14.89 117.2-15.67 116.98-16.46 117.03-17.29L117.03-17.29Q117.08-17.68 117.2-18.04 117.33-18.41 117.57-18.7L117.57-18.7Q117.33-19.29 117.42-19.82L117.42-19.82Q117.47-20.65 117.62-21.39 117.77-22.12 117.81-22.85L117.81-22.85Q117.81-23.24 117.77-23.61 117.72-23.97 117.62-24.32L117.62-24.32 117.18-24.46Q116.89-24.46 116.62-24.32 116.35-24.17 116.15-23.97 115.96-23.78 115.81-23.66 115.67-23.54 115.52-23.54L115.52-23.54Q115.42-23.54 115.3-23.56 115.18-23.58 115.08-23.58L115.08-23.58Q114.98-23.58 114.71-23.39 114.45-23.19 114.08-22.97 113.71-22.75 113.37-22.53 113.03-22.31 112.83-22.27L112.83-22.27Q112.3-22.36 111.98-22.63 111.66-22.9 111.39-23.17 111.13-23.44 110.83-23.66 110.54-23.88 110.1-23.83L110.1-23.83Q109.95-24.12 109.93-24.46 109.9-24.8 109.95-25.15L109.95-25.15 109.95-25.93Q110.3-26.56 110.86-26.98 111.42-27.39 112.05-27.69L112.05-27.69 113.32-28.27Q113.96-28.56 114.49-29L114.49-29 114.93-29Q115.81-28.96 116.47-29.35 117.13-29.74 117.72-30.25 118.3-30.76 118.91-31.3 119.52-31.84 120.26-32.13L120.26-32.13Q120.79-31.88 121.38-31.71 121.97-31.54 122.6-31.49L122.6-31.49Q123.23-31.49 123.92-31.69 124.6-31.88 124.99-32.42L124.99-32.42Q125.24-32.32 125.41-32.3 125.58-32.28 125.82-32.28L125.82-32.28Q126.56-32.23 127.29-32.5 128.02-32.76 128.7-33.15L128.7-33.15Q129.68-33.11 130.63-33.28 131.58-33.45 132.54-33.64 133.49-33.84 134.44-34.01 135.39-34.18 136.37-34.13L136.37-34.13Q137.98-34.08 139.54-34.42 141.11-34.77 142.72-34.67L142.72-34.67Q143.84-34.62 144.94-34.5 146.04-34.38 147.16-34.42L147.16-34.42Q147.8-34.13 148.31-33.91 148.82-33.69 149.6-33.79L149.6-33.79Q151.16-32.47 152.43-30.71L152.43-30.71 152.43-29.88Q152.39-28.76 152.04-27.69 151.7-26.61 151.24-25.56 150.77-24.51 150.24-23.51 149.7-22.51 149.21-21.53L149.21-21.53Q146.04-18.65 142.86-15.82 139.69-12.99 136.32-10.35L136.32-10.35Q136.22-9.86 136.05-9.47 135.88-9.08 135.83-8.64L135.83-8.64Q135.83-8.4 135.88-8.25L135.88-8.25Q136.22-8.15 136.49-7.89 136.76-7.62 136.66-7.18L136.66-7.18 137.1-7.18Q137.35-7.18 137.35-6.98L137.35-6.98 138.13-6.93Q139.98-6.84 141.84-7.03 143.69-7.23 145.57-7.47 147.45-7.71 149.31-7.93 151.16-8.15 153.02-8.2L153.02-8.2Q153.46-8.35 153.95-8.45 154.44-8.54 154.83-8.84L154.83-8.84 154.97-8.84Q155.31-8.84 155.49-8.64 155.66-8.45 156-8.4L156-8.4Q156.24-8.4 156.51-8.5 156.78-8.59 157.07-8.64L157.07-8.64Q157.76-8.84 158.51-8.89 159.27-8.94 160-9.03L160-9.03Q162.83-9.28 165.62-9.35 168.4-9.42 171.18-10.06L171.18-10.06Q171.43-9.72 171.87-9.59 172.31-9.47 172.8-9.35 173.28-9.23 173.7-9.08 174.11-8.94 174.26-8.5ZM191.3-31.05L191.3-31.05 191.3-30.86Q190.96-30.76 190.96-30.37L190.96-30.37Q190.42-30.13 189.83-30 189.25-29.88 188.71-29.64L188.71-29.64Q188.17-29.69 187.61-29.71 187.05-29.74 186.51-29.74L186.51-29.74Q185.05-29.74 183.58-29.64 182.12-29.54 180.65-29.64L180.65-29.64Q179.97-29.25 179.16-29.03 178.36-28.81 177.63-28.81L177.63-28.81Q177.04-28.81 176.6-28.96L176.6-28.96Q175.43-28.37 174.04-27.98 172.65-27.59 171.23-27.22 169.81-26.86 168.52-26.39 167.23-25.93 166.25-25.1L166.25-25.1Q166.15-24.41 166.1-23.75 166.05-23.1 166.05-22.46L166.05-22.46Q166.05-21.78 166.13-21.19 166.2-20.61 166.45-20.02L166.45-20.02Q166.69-19.92 167.01-19.87 167.32-19.82 167.57-19.82L167.57-19.82Q167.81-19.82 168.06-19.9 168.3-19.97 168.4-20.21L168.4-20.21Q169.13-20.31 169.86-20.29 170.6-20.26 171.33-20.26L171.33-20.26Q172.06-20.26 172.77-20.31 173.48-20.36 174.16-20.56L174.16-20.56Q174.94-20.75 175.7-20.8 176.45-20.85 177.19-20.9 177.92-20.95 178.7-21.07 179.48-21.19 180.31-21.58L180.31-21.58Q180.95-21.34 181.61-21.34 182.27-21.34 182.9-21.24L182.9-21.24Q183.24-21 183.46-20.7 183.68-20.41 183.68-20.02L183.68-20.02Q183.68-19.34 183.19-18.65 182.7-17.97 182.41-17.38L182.41-17.38 181.87-17.38Q180.7-17.38 179.6-17.07 178.51-16.75 177.41-16.33 176.31-15.92 175.21-15.6 174.11-15.28 172.94-15.28L172.94-15.28Q172.74-15.28 172.72-15.06 172.7-14.84 172.6-14.75L172.6-14.75Q172.35-14.79 171.87-14.79L171.87-14.79Q170.74-14.79 169.72-14.55 168.69-14.31 167.62-14.31L167.62-14.31Q167.32-14.31 167.03-14.33 166.74-14.36 166.45-14.4L166.45-14.4Q166.2-14.01 165.81-13.89 165.42-13.77 165.08-13.48L165.08-13.48Q164.93-13.04 164.91-12.4 164.88-11.77 164.86-11.11 164.83-10.45 164.74-9.86 164.64-9.28 164.35-8.94L164.35-8.94Q164.39-8.69 164.74-8.76 165.08-8.84 165.08-8.45L165.08-8.45Q165.08-8.01 164.98-7.52 164.88-7.03 164.88-6.54L164.88-6.54Q164.88-5.62 165.1-4.52 165.32-3.42 165.79-2.49 166.25-1.56 167.03-0.95 167.81-0.34 168.98-0.34L168.98-0.34Q169.77-0.34 170.45-0.63 171.13-0.93 171.57-1.61L171.57-1.61 171.82-1.66Q172.01-1.66 172.18-1.61 172.35-1.56 172.55-1.56L172.55-1.56Q172.84-1.56 173.31-1.93 173.77-2.29 174.33-2.78 174.89-3.27 175.48-3.74 176.06-4.2 176.6-4.39L176.6-4.39Q176.94-5.08 177.26-5.76 177.58-6.45 178.21-6.84L178.21-6.84 178.21-8.25Q178.7-8.79 179.26-9.23 179.82-9.67 180.12-10.35L180.12-10.35Q180.36-10.25 180.58-10.21 180.8-10.16 181.04-10.16L181.04-10.16Q181.29-10.16 181.56-10.21 181.83-10.25 182.07-10.35L182.07-10.35Q182.46-9.81 182.68-9.16 182.9-8.5 183.24-7.91L183.24-7.91Q182.8-7.03 182.22-5.81 181.63-4.59 180.95-3.37 180.26-2.15 179.51-1.05 178.75 0.05 178.02 0.63L178.02 0.63Q177.87 0.78 177.38 0.98L177.38 0.98Q176.85 1.37 176.41 1.73 175.97 2.1 175.58 2.59L175.58 2.59Q174.16 3.03 172.87 3.76 171.57 4.49 170.3 5.18L170.3 5.18Q169.72 5.03 169.03 5.03L169.03 5.03Q168.45 5.03 167.86 5.1 167.28 5.18 166.59 5.18L166.59 5.18Q166.4 4.93 166.03 4.86 165.66 4.79 165.76 4.35L165.76 4.35Q164.1 4.25 163.08 3.44 162.05 2.64 161.34 1.46 160.63 0.29 160.2-1.07 159.76-2.44 159.27-3.71L159.27-3.71 159.27-3.86Q159.27-4.1 159.46-4.15 159.66-4.2 159.66-4.44L159.66-4.44Q159.66-4.54 159.61-4.59L159.61-4.59Q159.46-5.13 159.37-5.52 159.27-5.91 159.27-6.45L159.27-6.45Q159.27-7.23 159.37-7.98 159.46-8.74 159.46-9.52L159.46-9.52Q159.46-10.3 159.27-10.89L159.27-10.89Q159.46-11.13 159.58-11.55 159.71-11.96 159.76-12.4 159.8-12.84 159.83-13.28 159.85-13.72 159.95-14.06L159.95-14.06Q159.76-14.6 159.61-15.01 159.46-15.43 159.46-16.02L159.46-16.02 159.46-16.36Q159.95-17.19 160.29-18.07 160.63-18.95 161.03-19.87L161.03-19.87 161.03-20.02Q161.03-21.44 160.93-22.85 160.83-24.27 160.83-25.68L160.83-25.68 160.83-26.61Q160.83-27.1 160.88-27.54L160.88-27.54Q161.27-27.73 161.46-28.08 161.66-28.42 162.05-28.61L162.05-28.61 163.66-28.61 163.95-29.1Q164.1-29.35 164.15-29.64L164.15-29.64Q164.69-29.79 165.2-30.05 165.71-30.32 166.15-30.62L166.15-30.62Q166.84-31.01 167.4-31.32 167.96-31.64 168.52-31.86 169.08-32.08 169.72-32.23 170.35-32.37 171.18-32.47L171.18-32.47Q171.57-32.47 171.69-32.62 171.82-32.76 172.06-32.96L172.06-32.96Q172.65-32.86 173.23-32.79 173.82-32.71 174.4-32.71L174.4-32.71Q175.58-32.71 176.6-33.15L176.6-33.15Q178.07-33.15 179.51-33.2 180.95-33.25 182.41-33.25L182.41-33.25Q183.68-33.25 184.95-33.15 186.22-33.06 187.44-32.81L187.44-32.81Q187.88-32.96 188.42-32.96L188.42-32.96Q189-32.96 189.61-32.84 190.22-32.71 190.81-32.81L190.81-32.81Q190.86-32.28 191.08-31.91 191.3-31.54 191.3-31.05ZM219.86-31.05L219.86-31.05 219.86-30.86Q219.52-30.76 219.52-30.37L219.52-30.37Q218.98-30.13 218.4-30 217.81-29.88 217.27-29.64L217.27-29.64Q216.74-29.69 216.17-29.71 215.61-29.74 215.08-29.74L215.08-29.74Q213.61-29.74 212.15-29.64 210.68-29.54 209.22-29.64L209.22-29.64Q208.53-29.25 207.73-29.03 206.92-28.81 206.19-28.81L206.19-28.81Q205.6-28.81 205.16-28.96L205.16-28.96Q203.99-28.37 202.6-27.98 201.21-27.59 199.79-27.22 198.38-26.86 197.08-26.39 195.79-25.93 194.81-25.1L194.81-25.1Q194.71-24.41 194.67-23.75 194.62-23.1 194.62-22.46L194.62-22.46Q194.62-21.78 194.69-21.19 194.76-20.61 195.01-20.02L195.01-20.02Q195.25-19.92 195.57-19.87 195.89-19.82 196.13-19.82L196.13-19.82Q196.37-19.82 196.62-19.9 196.86-19.97 196.96-20.21L196.96-20.21Q197.69-20.31 198.43-20.29 199.16-20.26 199.89-20.26L199.89-20.26Q200.62-20.26 201.33-20.31 202.04-20.36 202.72-20.56L202.72-20.56Q203.5-20.75 204.26-20.8 205.02-20.85 205.75-20.9 206.48-20.95 207.26-21.07 208.04-21.19 208.87-21.58L208.87-21.58Q209.51-21.34 210.17-21.34 210.83-21.34 211.46-21.24L211.46-21.24Q211.8-21 212.02-20.7 212.24-20.41 212.24-20.02L212.24-20.02Q212.24-19.34 211.76-18.65 211.27-17.97 210.97-17.38L210.97-17.38 210.44-17.38Q209.26-17.38 208.17-17.07 207.07-16.75 205.97-16.33 204.87-15.92 203.77-15.6 202.67-15.28 201.5-15.28L201.5-15.28Q201.31-15.28 201.28-15.06 201.26-14.84 201.16-14.75L201.16-14.75Q200.92-14.79 200.43-14.79L200.43-14.79Q199.3-14.79 198.28-14.55 197.25-14.31 196.18-14.31L196.18-14.31Q195.89-14.31 195.59-14.33 195.3-14.36 195.01-14.4L195.01-14.4Q194.76-14.01 194.37-13.89 193.98-13.77 193.64-13.48L193.64-13.48Q193.49-13.04 193.47-12.4 193.44-11.77 193.42-11.11 193.4-10.45 193.3-9.86 193.2-9.28 192.91-8.94L192.91-8.94Q192.96-8.69 193.3-8.76 193.64-8.84 193.64-8.45L193.64-8.45Q193.64-8.01 193.54-7.52 193.44-7.03 193.44-6.54L193.44-6.54Q193.44-5.62 193.66-4.52 193.88-3.42 194.35-2.49 194.81-1.56 195.59-0.95 196.37-0.34 197.55-0.34L197.55-0.34Q198.33-0.34 199.01-0.63 199.69-0.93 200.13-1.61L200.13-1.61 200.38-1.66Q200.57-1.66 200.74-1.61 200.92-1.56 201.11-1.56L201.11-1.56Q201.4-1.56 201.87-1.93 202.33-2.29 202.89-2.78 203.45-3.27 204.04-3.74 204.63-4.2 205.16-4.39L205.16-4.39Q205.51-5.08 205.82-5.76 206.14-6.45 206.77-6.84L206.77-6.84 206.77-8.25Q207.26-8.79 207.82-9.23 208.39-9.67 208.68-10.35L208.68-10.35Q208.92-10.25 209.14-10.21 209.36-10.16 209.61-10.16L209.61-10.16Q209.85-10.16 210.12-10.21 210.39-10.25 210.63-10.35L210.63-10.35Q211.02-9.81 211.24-9.16 211.46-8.5 211.8-7.91L211.8-7.91Q211.36-7.03 210.78-5.81 210.19-4.59 209.51-3.37 208.83-2.15 208.07-1.05 207.31 0.05 206.58 0.63L206.58 0.63Q206.43 0.78 205.94 0.98L205.94 0.98Q205.41 1.37 204.97 1.73 204.53 2.1 204.14 2.59L204.14 2.59Q202.72 3.03 201.43 3.76 200.13 4.49 198.86 5.18L198.86 5.18Q198.28 5.03 197.59 5.03L197.59 5.03Q197.01 5.03 196.42 5.1 195.84 5.18 195.15 5.18L195.15 5.18Q194.96 4.93 194.59 4.86 194.23 4.79 194.32 4.35L194.32 4.35Q192.66 4.25 191.64 3.44 190.61 2.64 189.9 1.46 189.2 0.29 188.76-1.07 188.32-2.44 187.83-3.71L187.83-3.71 187.83-3.86Q187.83-4.1 188.02-4.15 188.22-4.2 188.22-4.44L188.22-4.44Q188.22-4.54 188.17-4.59L188.17-4.59Q188.02-5.13 187.93-5.52 187.83-5.91 187.83-6.45L187.83-6.45Q187.83-7.23 187.93-7.98 188.02-8.74 188.02-9.52L188.02-9.52Q188.02-10.3 187.83-10.89L187.83-10.89Q188.02-11.13 188.15-11.55 188.27-11.96 188.32-12.4 188.37-12.84 188.39-13.28 188.42-13.72 188.51-14.06L188.51-14.06Q188.32-14.6 188.17-15.01 188.02-15.43 188.02-16.02L188.02-16.02 188.02-16.36Q188.51-17.19 188.85-18.07 189.2-18.95 189.59-19.87L189.59-19.87 189.59-20.02Q189.59-21.44 189.49-22.85 189.39-24.27 189.39-25.68L189.39-25.68 189.39-26.61Q189.39-27.1 189.44-27.54L189.44-27.54Q189.83-27.73 190.03-28.08 190.22-28.42 190.61-28.61L190.61-28.61 192.22-28.61 192.52-29.1Q192.66-29.35 192.71-29.64L192.71-29.64Q193.25-29.79 193.76-30.05 194.27-30.32 194.71-30.62L194.71-30.62Q195.4-31.01 195.96-31.32 196.52-31.64 197.08-31.86 197.64-32.08 198.28-32.23 198.91-32.37 199.74-32.47L199.74-32.47Q200.13-32.47 200.26-32.62 200.38-32.76 200.62-32.96L200.62-32.96Q201.21-32.86 201.79-32.79 202.38-32.71 202.97-32.71L202.97-32.71Q204.14-32.71 205.16-33.15L205.16-33.15Q206.63-33.15 208.07-33.2 209.51-33.25 210.97-33.25L210.97-33.25Q212.24-33.25 213.51-33.15 214.78-33.06 216-32.81L216-32.81Q216.44-32.96 216.98-32.96L216.98-32.96Q217.57-32.96 218.18-32.84 218.79-32.71 219.37-32.81L219.37-32.81Q219.42-32.28 219.64-31.91 219.86-31.54 219.86-31.05ZM249.64-32.08L249.64-32.08Q249.55-31.49 249.37-31.08 249.2-30.66 249.3-29.98L249.3-29.98Q248.81-29.93 248.54-29.66 248.28-29.39 248.11-29.05 247.93-28.71 247.76-28.34 247.59-27.98 247.35-27.69L247.35-27.69Q247.74-25.93 247.79-24.12 247.84-22.31 248.03-20.56L248.03-20.56Q248.28-18.31 248.79-16.14 249.3-13.96 249.3-11.72L249.3-11.72Q249.3-11.04 249.28-10.45 249.25-9.86 249.25-9.23L249.25-9.23Q249.25-8.84 249.28-8.42 249.3-8.01 249.3-7.62L249.3-7.62Q249.3-6.2 248.94-4.79 248.57-3.37 248.37-1.95L248.37-1.95Q247.79-1.42 247.37-0.78 246.96-0.15 246.52 0.39 246.08 0.93 245.49 1.34 244.91 1.76 244.03 1.9L244.03 1.9Q243.88 2.39 243.47 2.64 243.05 2.88 242.76 3.32L242.76 3.32 242.66 3.32Q241.44 3.32 240.56 2.98 239.68 2.64 238.93 2.2 238.17 1.76 237.39 1.27 236.61 0.78 235.58 0.49L235.58 0.49Q234.21-0.63 233.09-1.98 231.97-3.32 230.55-4.39L230.55-4.39Q230.21-5.37 229.65-6.01 229.09-6.64 228.55-7.47L228.55-7.47Q228.31-7.81 228.18-8.11 228.06-8.4 227.87-8.79L227.87-8.79Q227.72-9.18 227.4-9.33 227.08-9.47 226.84-9.67L226.84-9.67Q226.45-11.18 225.72-12.45 224.99-13.72 224.01-14.89L224.01-14.89Q223.72-14.36 223.54-13.75 223.37-13.13 223.23-12.52 223.08-11.91 222.86-11.3 222.64-10.69 222.3-10.21L222.3-10.21 222.3-10.06Q222.3-9.81 222.49-9.77 222.69-9.72 222.69-9.47L222.69-9.47Q222.69-9.42 222.67-9.38 222.64-9.33 222.64-9.28L222.64-9.28Q222.4-9.08 222.28-8.79 222.15-8.5 221.76-8.45L221.76-8.45Q221.81-8.2 221.81-7.96L221.81-7.96 221.81-7.52Q221.81-6.1 221.49-4.69 221.18-3.27 221.18-1.81L221.18-1.81 221.18-1.17Q221.18-0.83 221.23-0.54L221.23-0.54Q221.32-0.24 221.52 0.05 221.71 0.34 221.71 0.59L221.71 0.59Q221.71 0.93 221.42 1.22L221.42 1.22Q221.76 1.46 222.2 1.76 222.64 2.05 223.01 2.42 223.37 2.78 223.62 3.2 223.86 3.61 223.86 4.1L223.86 4.1Q223.86 4.93 223.32 5.27 222.79 5.62 222.03 5.81 221.27 6.01 220.47 6.18 219.66 6.35 219.13 6.79L219.13 6.79 218.98 6.79Q218.39 6.79 218.1 6.45 217.81 6.1 217.22 6.1L217.22 6.1Q216.29 4.59 215.95 2.71 215.61 0.83 215.61-0.88L215.61-0.88Q215.61-2.98 215.98-5.08 216.34-7.18 216.86-9.23 217.37-11.28 217.98-13.31 218.59-15.33 219.13-17.38L219.13-17.38 219.17-17.53Q219.17-17.77 219.05-17.87 218.93-17.97 218.93-18.16L218.93-18.16Q218.93-18.26 218.98-18.26L218.98-18.26Q219.13-18.75 219.3-19.19 219.47-19.63 219.57-20.17L219.57-20.17Q219.86-21.53 219.98-22.97 220.1-24.41 220.13-25.83 220.15-27.25 220.22-28.69 220.3-30.13 220.54-31.54L220.54-31.54Q220.93-31.93 221.27-32.37 221.62-32.81 222.15-33.15L222.15-33.15Q223.13-33.11 224.11-32.86 225.08-32.62 225.96-32.08L225.96-32.08Q226.55-29.98 226.77-27.88 226.99-25.78 227.52-23.68L227.52-23.68 227.52-23.54Q227.52-23.29 227.79-23.32 228.06-23.34 228.21-23.14L228.21-23.14Q228.11-23 228.09-22.8 228.06-22.61 228.06-22.41L228.06-22.41 228.06-21.58Q228.16-21.19 228.31-20.75 228.45-20.31 228.94-20.21L228.94-20.21Q229.18-18.65 229.67-17.33 230.16-16.02 230.8-14.79 231.43-13.57 232.16-12.38 232.9-11.18 233.68-9.86L233.68-9.86Q234.9-8.94 235.78-7.74 236.65-6.54 237.56-5.44 238.46-4.35 239.61-3.52 240.76-2.69 242.61-2.49L242.61-2.49Q242.86-2.69 242.95-3.03L242.95-3.03 243.2-3.71Q243.34-4.05 243.52-4.32 243.69-4.59 244.03-4.74L244.03-4.74Q244.13-6.1 244.25-7.52 244.37-8.94 244.86-10.21L244.86-10.21Q244.61-10.64 244.61-11.28L244.61-11.28Q244.61-11.77 244.69-12.21 244.76-12.65 244.76-13.09L244.76-13.09Q244.76-14.01 244.37-14.6L244.37-14.6Q244.37-14.94 244.42-15.31 244.47-15.67 244.71-16.02L244.71-16.02Q244.32-16.99 244.1-18.07 243.88-19.14 243.88-20.26L243.88-20.26Q243.88-20.9 244.03-21.58L244.03-21.58Q243.74-22.31 243.64-23.29L243.64-23.29 243.44-25.29Q243.34-26.32 243.15-27.2 242.95-28.08 242.42-28.61L242.42-28.61Q242.71-29.05 242.71-29.64L242.71-29.64Q242.71-30.62 242.42-31.49 242.12-32.37 242.12-33.35L242.12-33.35Q242.12-34.03 242.42-34.72L242.42-34.72Q243.49-34.67 244.54-34.5 245.59-34.33 246.62-34.33L246.62-34.33Q246.91-33.94 247.3-33.69 247.69-33.45 248.13-33.23 248.57-33.01 248.98-32.76 249.4-32.52 249.64-32.08Z" opacity="1" transform="matrix(1,0,0,1,0,0)" fill="#ffffff" class="undefined-text-0" data-fill-palette-color="quaternary" id="text-0"></path></svg></g></svg></g></svg></g></svg></g><g></g></svg></g></svg></g></svg></g></svg></g><defs></defs></svg><rect width="342.85155851775386" height="342.85155851775386" fill="none" stroke="none" visibility="hidden"></rect></g></svg></g></svg>